<svg xmlns="http://www.w3.org/2000/svg" viewBox="0 0 1024 1024">
  <defs>
    <linearGradient id="g_face" gradientUnits="userSpaceOnUse" x1="240.4" y1="384.7" x2="486.0" y2="777.7"><stop offset="0.0208" stop-color="rgb(252,107,70)"/><stop offset="0.0625" stop-color="rgb(250,92,62)"/><stop offset="0.1042" stop-color="rgb(246,78,57)"/><stop offset="0.1458" stop-color="rgb(243,65,51)"/><stop offset="0.1875" stop-color="rgb(239,54,44)"/><stop offset="0.2292" stop-color="rgb(237,50,41)"/><stop offset="0.2708" stop-color="rgb(235,51,41)"/><stop offset="0.3125" stop-color="rgb(234,48,39)"/><stop offset="0.3542" stop-color="rgb(232,47,38)"/><stop offset="0.3958" stop-color="rgb(230,45,36)"/><stop offset="0.4375" stop-color="rgb(227,41,33)"/><stop offset="0.4792" stop-color="rgb(225,38,31)"/><stop offset="0.5208" stop-color="rgb(223,36,29)"/><stop offset="0.5625" stop-color="rgb(221,31,26)"/><stop offset="0.6042" stop-color="rgb(218,29,24)"/><stop offset="0.6458" stop-color="rgb(217,28,23)"/><stop offset="0.6875" stop-color="rgb(214,27,22)"/><stop offset="0.7292" stop-color="rgb(213,26,21)"/><stop offset="0.7708" stop-color="rgb(212,26,21)"/><stop offset="0.8125" stop-color="rgb(214,29,23)"/><stop offset="0.8542" stop-color="rgb(216,33,26)"/><stop offset="0.8958" stop-color="rgb(218,39,31)"/><stop offset="0.9375" stop-color="rgb(222,49,38)"/><stop offset="0.9792" stop-color="rgb(229,61,46)"/></linearGradient><radialGradient id="g_hook" gradientUnits="userSpaceOnUse" cx="816" cy="921" r="403.9"><stop offset="0.6845" stop-color="rgb(245,93,69)"/><stop offset="0.6979" stop-color="rgb(243,89,66)"/><stop offset="0.7114" stop-color="rgb(242,84,61)"/><stop offset="0.7248" stop-color="rgb(240,78,58)"/><stop offset="0.7382" stop-color="rgb(237,73,54)"/><stop offset="0.7516" stop-color="rgb(235,68,52)"/><stop offset="0.7651" stop-color="rgb(232,62,48)"/><stop offset="0.7785" stop-color="rgb(230,58,45)"/><stop offset="0.7919" stop-color="rgb(228,53,42)"/><stop offset="0.8053" stop-color="rgb(226,50,39)"/><stop offset="0.8188" stop-color="rgb(225,46,36)"/><stop offset="0.8322" stop-color="rgb(223,44,34)"/><stop offset="0.8456" stop-color="rgb(221,39,31)"/><stop offset="0.8590" stop-color="rgb(219,39,30)"/><stop offset="0.8725" stop-color="rgb(218,35,28)"/><stop offset="0.8859" stop-color="rgb(217,30,26)"/><stop offset="0.8993" stop-color="rgb(216,31,26)"/><stop offset="0.9127" stop-color="rgb(216,30,25)"/><stop offset="0.9262" stop-color="rgb(215,29,24)"/><stop offset="0.9396" stop-color="rgb(214,28,24)"/><stop offset="0.9530" stop-color="rgb(214,26,22)"/><stop offset="0.9664" stop-color="rgb(213,29,23)"/><stop offset="0.9799" stop-color="rgb(212,24,21)"/><stop offset="0.9933" stop-color="rgb(214,24,20)"/></radialGradient><radialGradient id="g_band1" gradientUnits="userSpaceOnUse" cx="499" cy="255" r="447.1"><stop offset="0.4193" stop-color="rgb(135,4,2)"/><stop offset="0.4440" stop-color="rgb(142,4,3)"/><stop offset="0.4688" stop-color="rgb(150,8,5)"/><stop offset="0.4935" stop-color="rgb(163,10,7)"/><stop offset="0.5182" stop-color="rgb(173,14,10)"/><stop offset="0.5429" stop-color="rgb(180,16,12)"/><stop offset="0.5676" stop-color="rgb(186,17,13)"/><stop offset="0.5923" stop-color="rgb(191,20,15)"/><stop offset="0.6170" stop-color="rgb(194,23,17)"/><stop offset="0.6417" stop-color="rgb(197,25,19)"/><stop offset="0.6664" stop-color="rgb(200,28,21)"/><stop offset="0.6911" stop-color="rgb(202,31,23)"/><stop offset="0.7158" stop-color="rgb(205,34,25)"/><stop offset="0.7406" stop-color="rgb(207,35,26)"/><stop offset="0.7653" stop-color="rgb(209,38,28)"/><stop offset="0.7900" stop-color="rgb(210,39,29)"/><stop offset="0.8147" stop-color="rgb(212,40,30)"/><stop offset="0.8394" stop-color="rgb(213,43,32)"/><stop offset="0.8641" stop-color="rgb(214,44,34)"/><stop offset="0.8888" stop-color="rgb(216,46,35)"/><stop offset="0.9135" stop-color="rgb(217,49,36)"/><stop offset="0.9382" stop-color="rgb(216,50,36)"/><stop offset="0.9629" stop-color="rgb(216,51,33)"/><stop offset="0.9876" stop-color="rgb(205,46,32)"/></radialGradient><linearGradient id="g_band2" gradientUnits="userSpaceOnUse" x1="428.7" y1="510.9" x2="495.6" y2="590.7"><stop offset="0.0208" stop-color="rgb(135,4,2)"/><stop offset="0.0625" stop-color="rgb(141,5,3)"/><stop offset="0.1042" stop-color="rgb(147,7,4)"/><stop offset="0.1458" stop-color="rgb(152,8,5)"/><stop offset="0.1875" stop-color="rgb(158,9,6)"/><stop offset="0.2292" stop-color="rgb(164,10,7)"/><stop offset="0.2708" stop-color="rgb(170,14,9)"/><stop offset="0.3125" stop-color="rgb(177,16,11)"/><stop offset="0.3542" stop-color="rgb(186,19,13)"/><stop offset="0.3958" stop-color="rgb(194,20,15)"/><stop offset="0.4375" stop-color="rgb(201,22,17)"/><stop offset="0.4792" stop-color="rgb(205,24,19)"/><stop offset="0.5208" stop-color="rgb(209,25,20)"/><stop offset="0.5625" stop-color="rgb(213,28,22)"/><stop offset="0.6042" stop-color="rgb(216,28,23)"/><stop offset="0.6458" stop-color="rgb(218,29,24)"/><stop offset="0.6875" stop-color="rgb(220,29,25)"/><stop offset="0.7292" stop-color="rgb(222,32,27)"/><stop offset="0.7708" stop-color="rgb(225,33,28)"/><stop offset="0.8125" stop-color="rgb(227,32,28)"/><stop offset="0.8542" stop-color="rgb(228,32,29)"/><stop offset="0.8958" stop-color="rgb(230,33,30)"/><stop offset="0.9375" stop-color="rgb(230,35,31)"/><stop offset="0.9792" stop-color="rgb(233,33,30)"/></linearGradient><linearGradient id="g_stemtop" gradientUnits="userSpaceOnUse" x1="584.2" y1="394.0" x2="654.2" y2="441.3"><stop offset="0.0208" stop-color="rgb(242,60,39)"/><stop offset="0.0625" stop-color="rgb(244,57,39)"/><stop offset="0.1042" stop-color="rgb(244,56,40)"/><stop offset="0.1458" stop-color="rgb(244,53,40)"/><stop offset="0.1875" stop-color="rgb(244,52,39)"/><stop offset="0.2292" stop-color="rgb(244,50,38)"/><stop offset="0.2708" stop-color="rgb(244,48,37)"/><stop offset="0.3125" stop-color="rgb(244,46,36)"/><stop offset="0.3542" stop-color="rgb(244,45,36)"/><stop offset="0.3958" stop-color="rgb(245,42,34)"/><stop offset="0.4375" stop-color="rgb(245,42,34)"/><stop offset="0.4792" stop-color="rgb(245,40,33)"/><stop offset="0.5208" stop-color="rgb(245,39,32)"/><stop offset="0.5625" stop-color="rgb(245,39,32)"/><stop offset="0.6042" stop-color="rgb(245,37,31)"/><stop offset="0.6458" stop-color="rgb(246,37,31)"/><stop offset="0.6875" stop-color="rgb(246,36,31)"/><stop offset="0.7292" stop-color="rgb(247,36,31)"/><stop offset="0.7708" stop-color="rgb(247,36,31)"/><stop offset="0.8125" stop-color="rgb(247,34,30)"/><stop offset="0.8542" stop-color="rgb(247,34,30)"/><stop offset="0.8958" stop-color="rgb(248,32,29)"/><stop offset="0.9375" stop-color="rgb(248,29,28)"/><stop offset="0.9792" stop-color="rgb(248,28,28)"/></linearGradient><linearGradient id="g_leaf" gradientUnits="userSpaceOnUse" x1="436.4" y1="-212.8" x2="266.6" y2="-130.0"><stop offset="0.0208" stop-color="rgb(254,75,37)"/><stop offset="0.0625" stop-color="rgb(253,83,41)"/><stop offset="0.1042" stop-color="rgb(252,90,43)"/><stop offset="0.1458" stop-color="rgb(253,96,45)"/><stop offset="0.1875" stop-color="rgb(253,101,47)"/><stop offset="0.2292" stop-color="rgb(253,105,48)"/><stop offset="0.2708" stop-color="rgb(253,110,49)"/><stop offset="0.3125" stop-color="rgb(253,115,50)"/><stop offset="0.3542" stop-color="rgb(253,119,51)"/><stop offset="0.3958" stop-color="rgb(253,124,52)"/><stop offset="0.4375" stop-color="rgb(253,128,53)"/><stop offset="0.4792" stop-color="rgb(253,133,53)"/><stop offset="0.5208" stop-color="rgb(253,138,54)"/><stop offset="0.5625" stop-color="rgb(253,141,55)"/><stop offset="0.6042" stop-color="rgb(253,144,56)"/><stop offset="0.6458" stop-color="rgb(253,146,56)"/><stop offset="0.6875" stop-color="rgb(252,147,57)"/><stop offset="0.7292" stop-color="rgb(252,138,56)"/><stop offset="0.7708" stop-color="rgb(250,120,50)"/><stop offset="0.8125" stop-color="rgb(247,108,46)"/><stop offset="0.8542" stop-color="rgb(243,98,43)"/><stop offset="0.8958" stop-color="rgb(240,88,39)"/><stop offset="0.9375" stop-color="rgb(235,81,37)"/><stop offset="0.9792" stop-color="rgb(233,74,34)"/></linearGradient><radialGradient id="p_leaf0" gradientUnits="userSpaceOnUse" cx="636" cy="468" r="75"><stop offset="0.083" stop-color="rgb(254,107,46)" stop-opacity="0.5"/><stop offset="0.250" stop-color="rgb(252,112,47)" stop-opacity="0.5"/><stop offset="0.417" stop-color="rgb(252,117,49)" stop-opacity="0.5"/><stop offset="0.583" stop-color="rgb(252,119,50)" stop-opacity="0.5"/><stop offset="0.750" stop-color="rgb(252,123,51)" stop-opacity="0.5"/><stop offset="0.917" stop-color="rgb(252,125,52)" stop-opacity="0.0"/><stop offset="1" stop-color="rgb(255,255,255)" stop-opacity="0"/></radialGradient><radialGradient id="p_leaf1" gradientUnits="userSpaceOnUse" cx="708" cy="540" r="75"><stop offset="0.083" stop-color="rgb(252,160,58)" stop-opacity="0.5"/><stop offset="0.250" stop-color="rgb(253,158,58)" stop-opacity="0.5"/><stop offset="0.417" stop-color="rgb(253,158,59)" stop-opacity="0.5"/><stop offset="0.583" stop-color="rgb(253,158,59)" stop-opacity="0.5"/><stop offset="0.750" stop-color="rgb(253,148,57)" stop-opacity="0.5"/><stop offset="0.917" stop-color="rgb(251,127,54)" stop-opacity="0.0"/><stop offset="1" stop-color="rgb(255,255,255)" stop-opacity="0"/></radialGradient><radialGradient id="p_leaf2" gradientUnits="userSpaceOnUse" cx="684" cy="420" r="75"><stop offset="0.083" stop-color="rgb(252,97,44)" stop-opacity="0.5"/><stop offset="0.250" stop-color="rgb(253,103,47)" stop-opacity="0.5"/><stop offset="0.417" stop-color="rgb(253,107,49)" stop-opacity="0.5"/><stop offset="0.583" stop-color="rgb(253,114,50)" stop-opacity="0.5"/><stop offset="0.750" stop-color="rgb(254,120,51)" stop-opacity="0.5"/><stop offset="0.917" stop-color="rgb(254,125,51)" stop-opacity="0.0"/><stop offset="1" stop-color="rgb(255,255,255)" stop-opacity="0"/></radialGradient><radialGradient id="p_leaf3" gradientUnits="userSpaceOnUse" cx="708" cy="372" r="75"><stop offset="0.083" stop-color="rgb(253,71,37)" stop-opacity="0.5"/><stop offset="0.250" stop-color="rgb(252,83,41)" stop-opacity="0.5"/><stop offset="0.417" stop-color="rgb(253,94,44)" stop-opacity="0.5"/><stop offset="0.583" stop-color="rgb(253,102,46)" stop-opacity="0.5"/><stop offset="0.750" stop-color="rgb(253,108,49)" stop-opacity="0.5"/><stop offset="0.917" stop-color="rgb(253,112,50)" stop-opacity="0.0"/><stop offset="1" stop-color="rgb(255,255,255)" stop-opacity="0"/></radialGradient><linearGradient id="crease_S2" gradientUnits="userSpaceOnUse" x1="608.55" y1="0" x2="710.5" y2="0"><stop offset="0.050" stop-color="rgb(210,39,23)"/><stop offset="0.150" stop-color="rgb(213,40,28)"/><stop offset="0.250" stop-color="rgb(219,50,34)"/><stop offset="0.350" stop-color="rgb(225,53,32)"/><stop offset="0.450" stop-color="rgb(229,64,39)"/><stop offset="0.550" stop-color="rgb(226,61,33)"/><stop offset="0.650" stop-color="rgb(228,80,41)"/><stop offset="0.750" stop-color="rgb(226,94,41)"/><stop offset="0.850" stop-color="rgb(220,87,41)"/><stop offset="0.950" stop-color="rgb(241,122,65)"/></linearGradient><linearGradient id="crease_B" gradientUnits="userSpaceOnUse" x1="311.5" y1="0" x2="413.38" y2="0"><stop offset="0.050" stop-color="rgb(168,5,0)"/><stop offset="0.150" stop-color="rgb(160,11,4)"/><stop offset="0.250" stop-color="rgb(150,13,4)"/><stop offset="0.350" stop-color="rgb(143,7,1)"/><stop offset="0.450" stop-color="rgb(137,7,1)"/><stop offset="0.550" stop-color="rgb(129,9,2)"/><stop offset="0.650" stop-color="rgb(133,9,1)"/><stop offset="0.750" stop-color="rgb(134,9,2)"/><stop offset="0.850" stop-color="rgb(134,6,3)"/><stop offset="0.950" stop-color="rgb(135,4,1)"/></linearGradient>
    <clipPath id="mark"><path d="M 309.85 703.00 L 309.85 391.00 C 309.85 341.42 351.43 294.09 402.30 294.09 C 423.08 294.09 445.41 301.36 462.00 315.46 C 488.50 337.99 503.11 371.56 518.70 402.00 L 605.60 572.30 L 605.55 378.00 C 605.55 353.87 620.42 322.83 641.57 310.00 C 662.27 297.45 684.84 289.62 709.00 289.62 Q 712.42 289.60 712.42 293.60 L 712.42 613.40 C 712.42 662.74 670.56 710.35 620.30 710.35 C 598.86 710.35 576.90 702.74 560.50 688.80 C 534.54 666.73 518.70 631.25 503.60 602.40 L 416.38 432.30 L 416.38 618.00 C 416.38 642.45 406.05 676.42 383.66 690.00 C 360.81 703.86 339.69 714.62 313.20 714.62 Q 309.85 714.70 309.85 710.60 Z"/></clipPath>
  </defs>
  <path d="M 309.85 703.00 L 309.85 391.00 C 309.85 341.42 351.43 294.09 402.30 294.09 C 423.08 294.09 445.41 301.36 462.00 315.46 C 488.50 337.99 503.11 371.56 518.70 402.00 L 605.60 572.30 L 605.55 378.00 C 605.55 353.87 620.42 322.83 641.57 310.00 C 662.27 297.45 684.84 289.62 709.00 289.62 Q 712.42 289.60 712.42 293.60 L 712.42 613.40 C 712.42 662.74 670.56 710.35 620.30 710.35 C 598.86 710.35 576.90 702.74 560.50 688.80 C 534.54 666.73 518.70 631.25 503.60 602.40 L 416.38 432.30 L 416.38 618.00 C 416.38 642.45 406.05 676.42 383.66 690.00 C 360.81 703.86 339.69 714.62 313.20 714.62 Q 309.85 714.70 309.85 710.60 Z" fill="url(#g_face)"/>
  <g clip-path="url(#mark)">
    <path d="M 309.85 703.00 L 309.85 391.00 C 309.85 341.42 351.43 294.09 402.30 294.09 C 423.08 294.09 445.41 301.36 462.00 315.46 C 488.50 337.99 503.11 371.56 518.70 402.00 L 605.60 572.30 L 605.55 378.00 C 605.55 353.87 620.42 322.83 641.57 310.00 C 662.27 297.45 684.84 289.62 709.00 289.62 Q 712.42 289.60 712.42 293.60 L 712.42 613.40 C 712.42 662.74 670.56 710.35 620.30 710.35 C 598.86 710.35 576.90 702.74 560.50 688.80 C 534.54 666.73 518.70 631.25 503.60 602.40 L 416.38 432.30 L 416.38 618.00 C 416.38 642.45 406.05 676.42 383.66 690.00 C 360.81 703.86 339.69 714.62 313.20 714.62 Q 309.85 714.70 309.85 710.60 Z" fill="url(#g_face)"/><path d="M 604.55 568.55 C 612.58 582.07 620.46 596.51 632.41 607.04 C 640.25 613.94 649.78 618.05 660.27 618.19 C 670.04 618.31 680.18 615.62 688.14 609.86 C 704.16 598.27 709.47 576.99 716.00 559.45 L 716.00 725.00 L 604.55 725.00 Z" fill="url(#g_hook)"/><path d="M 306.00 442.33 C 312.81 425.49 318.38 405.20 333.60 393.75 C 341.45 387.84 351.43 385.19 361.19 385.31 C 371.37 385.44 380.89 389.04 388.78 395.45 C 400.87 405.26 408.69 419.25 416.38 432.49 L 418.38 432.49 L 418.38 521.55 C 408.21 530.57 398.87 534.65 388.78 540.96 C 378.05 547.68 369.25 557.00 361.19 566.67 C 350.69 579.25 341.00 592.73 333.60 607.39 C 318.21 637.85 313.01 672.25 306.00 705.29 L 306.00 442.33 Z" fill="url(#g_band1)"/><path d="M 306.00 705.29 C 313.01 672.25 318.21 637.85 333.60 607.39 C 341.00 592.73 350.69 579.25 361.19 566.67 C 369.25 557.00 378.05 547.68 388.78 540.96 C 398.87 534.65 408.21 530.57 416.38 521.55 L 418.38 521.55 L 418.38 720.00 L 306.00 720.00 Z" fill="url(#g_band2)"/><path d="M 603.55 472.17 C 614.84 467.16 624.39 462.60 633.16 456.69 C 643.33 449.84 652.50 441.55 660.77 432.52 C 671.71 420.59 681.04 407.24 688.39 392.82 C 702.12 365.87 708.66 336.29 716.00 307.16 L 716.00 307.16 L 716.00 285.00 L 603.55 285.00 Z" fill="url(#g_stemtop)"/><path d="M 603.55 472.17 C 614.84 467.16 624.39 462.60 633.16 456.69 C 643.33 449.84 652.50 441.55 660.77 432.52 C 671.71 420.59 681.04 407.24 688.39 392.82 C 702.12 365.87 708.66 336.29 716.00 307.16 L 716.00 559.45 C 709.47 576.99 704.16 598.27 688.14 609.86 C 680.18 615.62 670.04 618.31 660.27 618.19 C 649.78 618.05 640.25 613.94 632.41 607.04 C 620.46 596.51 612.58 582.07 604.55 568.55 L 603.55 472.17 Z" fill="url(#g_leaf)"/><path d="M 603.55 472.17 C 614.84 467.16 624.39 462.60 633.16 456.69 C 643.33 449.84 652.50 441.55 660.77 432.52 C 671.71 420.59 681.04 407.24 688.39 392.82 C 702.12 365.87 708.66 336.29 716.00 307.16 L 716.00 559.45 C 709.47 576.99 704.16 598.27 688.14 609.86 C 680.18 615.62 670.04 618.31 660.27 618.19 C 649.78 618.05 640.25 613.94 632.41 607.04 C 620.46 596.51 612.58 582.07 604.55 568.55 L 603.55 472.17 Z" fill="url(#p_leaf0)"/><path d="M 603.55 472.17 C 614.84 467.16 624.39 462.60 633.16 456.69 C 643.33 449.84 652.50 441.55 660.77 432.52 C 671.71 420.59 681.04 407.24 688.39 392.82 C 702.12 365.87 708.66 336.29 716.00 307.16 L 716.00 559.45 C 709.47 576.99 704.16 598.27 688.14 609.86 C 680.18 615.62 670.04 618.31 660.27 618.19 C 649.78 618.05 640.25 613.94 632.41 607.04 C 620.46 596.51 612.58 582.07 604.55 568.55 L 603.55 472.17 Z" fill="url(#p_leaf1)"/><path d="M 603.55 472.17 C 614.84 467.16 624.39 462.60 633.16 456.69 C 643.33 449.84 652.50 441.55 660.77 432.52 C 671.71 420.59 681.04 407.24 688.39 392.82 C 702.12 365.87 708.66 336.29 716.00 307.16 L 716.00 559.45 C 709.47 576.99 704.16 598.27 688.14 609.86 C 680.18 615.62 670.04 618.31 660.27 618.19 C 649.78 618.05 640.25 613.94 632.41 607.04 C 620.46 596.51 612.58 582.07 604.55 568.55 L 603.55 472.17 Z" fill="url(#p_leaf2)"/><path d="M 603.55 472.17 C 614.84 467.16 624.39 462.60 633.16 456.69 C 643.33 449.84 652.50 441.55 660.77 432.52 C 671.71 420.59 681.04 407.24 688.39 392.82 C 702.12 365.87 708.66 336.29 716.00 307.16 L 716.00 559.45 C 709.47 576.99 704.16 598.27 688.14 609.86 C 680.18 615.62 670.04 618.31 660.27 618.19 C 649.78 618.05 640.25 613.94 632.41 607.04 C 620.46 596.51 612.58 582.07 604.55 568.55 L 603.55 472.17 Z" fill="url(#p_leaf3)"/><path d="M 608.55 575.29 C 615.63 587.18 623.19 599.56 634.04 608.42 C 641.34 614.38 650.07 617.90 659.52 618.17 C 668.30 618.43 677.42 616.37 685.01 611.90 C 698.75 603.81 705.27 588.55 710.50 574.23" transform="translate(0,1)" fill="none" stroke="url(#crease_S2)" stroke-width="3" stroke-linecap="round"/><path d="M 311.50 679.38 C 317.22 652.38 323.34 625.34 336.97 601.07 C 344.15 588.28 352.97 576.36 362.44 565.18 C 369.94 556.33 378.10 547.83 387.91 541.52 C 396.56 535.95 406.20 532.56 413.38 524.90" transform="translate(0,1)" fill="none" stroke="url(#crease_B)" stroke-width="3" stroke-linecap="round"/>
  </g>
</svg>
